<svg xmlns="http://www.w3.org/2000/svg" width="512" height="512" viewBox="0 0 512 512">
<defs>
 <radialGradient id="bg" cx="50%" cy="34%" r="82%">
  <stop offset="0%" stop-color="#1b1827"/><stop offset="55%" stop-color="#111019"/><stop offset="100%" stop-color="#0a0a10"/>
 </radialGradient>
 <radialGradient id="glow" cx="50%" cy="30%" r="52%">
  <stop offset="0%" stop-color="#e6c168" stop-opacity="0.32"/><stop offset="100%" stop-color="#e6c168" stop-opacity="0"/>
 </radialGradient>
</defs>
<rect width="512" height="512" rx="112" fill="url(#bg)"/>
<rect width="512" height="512" rx="112" fill="url(#glow)"/>
<rect x="9" y="9" width="494" height="494" rx="103" fill="none" stroke="#e6c168" stroke-opacity="0.42" stroke-width="5"/>
<g transform="translate(118 122) scale(6.13)"><g fill="none" fill-rule="evenodd" stroke="#241c08" stroke-linecap="round" stroke-linejoin="round" stroke-width="1.5"><path fill="#f6e2a6" d="M22 10c10.5 1 16.5 8 16 29H15c0-9 10-6.5 8-21"/><path fill="#f6e2a6" d="M24 18c.38 2.91-5.55 7.37-8 9-3 2-2.82 4.34-5 4-1.042-.94 1.41-3.04 0-3-1 0 .19 1.23-1 2-1 0-4.003 1-4-4 0-2 6-12 6-12s1.89-1.9 2-3.5c-.73-.994-.5-2-.5-3 1-1 3 2.5 3 2.5h2s.78-1.992 2.5-3c1 0 1 3 1 3"/><path fill="#241c08" d="M9.5 25.5a.5.5 0 1 1-1 0 .5.5 0 1 1 1 0m5.433-9.75a.5 1.5 30 1 1-.866-.5.5 1.5 30 1 1 .866.5"/></g></g>
</svg>